<svg xmlns="http://www.w3.org/2000/svg" viewBox="0 0 367.2 367.2" width="512" height="512"><path d="M271.6 76C255.2 76 242 62.4 242 46.4V0H60c-5.6 0-10.4 4.8-10.4 10.4v346.4c0 5.6 4.8 10.4 10.4 10.4h247.6c5.6 0 10-4.8 10-10.4V76h-46zM136.4 195.2c-2.4 12.4-10.4 21.6-23.2 23.6l-27.6.8c-7.6 0-9.2-3.2-9.2-10.4v-52.4c0-6.4 2.8-8.8 8.8-8.8 8.8 0 24-.8 31.6 1.2 18.4 4.8 23.6 28 19.6 46zm45.6 25.6c-22.8 0-35.2-15.2-35.2-37.2s12.4-36.8 34.8-36.8c23.2-.4 35.6 14.4 35.6 36.8 0 22-12 37.2-35.2 37.2zm92.4-2.4c-9.2 4-23.2 3.2-32-2-24.8-14.8-21.6-69.6 18.4-69.6 10.4 0 20.4 4.4 26 12 9.6 13.6-2 18.8-6.4 14.8-4-3.6-5.6-15.2-19.2-15.2-20.8 0-22.4 28-17.2 40 5.2 12.4 19.6 13.2 27.2 8 8.8-6 5.2-15.6 13.2-15.6 3.6-.4 6.4 2.4 6.4 6 0 9.2-7.6 17.6-16.4 21.6z" data-original="#000000" class="active-path" data-old_color="#000000" fill="#1273EB"/><path d="M181.6 158.4c-22.8-.4-23.6 32.8-14 44.4 10 11.6 34.8 8.8 34.8-19.2 0-13.6-6-25.2-20.8-25.2zM100.8 159.6h-9.6v48.8c5.6-.4 16 0 20.8-1.6 13.6-4.8 12.8-31.2 8-39.2-4.4-7.2-10.8-8-19.2-8zM271.6 58.8h33.6l-46-46.4v34c0 6.8 5.6 12.4 12.4 12.4z" data-original="#000000" class="active-path" data-old_color="#000000" fill="#1273EB"/></svg>