<svg xmlns="http://www.w3.org/2000/svg" viewBox="0 0 491.86 491.86" width="512" height="512"><path data-original="#010002" class="active-path" data-old_color="#010002" fill="#010002" d="M250.354 205.709H0v26.788h21.404v243.56h176.994v-243.56h51.956z"/><path d="M379.818 327.33c.046 0 .129.03.183.03 32.649.951 51.284-8.78 54.174-34.646l13.244-119.099c2.47-22.19-15.224-39.122-32.9-45.6l-.143-.046s-6.303-2.05-12.067-2.836c-6.008-.801-11.922.282-11.922.282-13.808 1.61-27.448 11.374-27.448 11.374-25.395 18.087-64.764 21.995-117.099 11.602-13.166-2.649-25.965 5.946-28.58 19.107-2.616 13.164 5.938 25.955 19.106 28.572 21.94 4.375 42.346 6.539 61.17 6.539 17.107 0 32.475-1.894 46.921-5.497l-.115 1.68-8.44 75.909c-44.21 1.597-72.062 10.705-82.979 27.249-14.765 22.482-38.754 113.12-45.75 140.925-3.616 14.363 5.113 28.938 19.478 32.563 2.185.549 4.39.823 6.561.823 12.004 0 22.952-8.122 26.008-20.285 12.329-48.979 29.363-99.745 37.141-115.817 6.444-13.978 49.075-14.722 83.457-12.829z" data-original="#010002" class="active-path" data-old_color="#010002" fill="#010002"/><circle cx="395.883" cy="67.804" r="54.305" data-original="#010002" class="active-path" data-old_color="#010002" fill="#010002"/><path d="M484.646 274.65l7.213-93.507a1.958 1.958 0 00-1.955-2.025h-29.679a1.957 1.957 0 00-1.956 1.888l-6.706 93.575c-.883 28.85-9.383 64.332-57.84 64.332-.687 0-53.585-.119-53.585-.119h-.001a1.96 1.96 0 00-1.384.572 1.964 1.964 0 00-.573 1.385v28.914c0 1.081.876 1.957 1.957 1.957l48.645-.002v66.461h-15.273c-19.994 0-36.885 17.552-36.885 38.325 0 1.081.876 1.956 1.956 1.956h19.266a1.956 1.956 0 001.957-1.956c0-7.642 6.272-14.098 13.698-14.098h63.341c7.43 0 13.706 6.456 13.706 14.098 0 1.081.877 1.956 1.957 1.956h19.273c1.08 0 1.956-.875 1.956-1.956 0-20.773-16.895-38.325-36.893-38.325h-15.259v-70.026c47.765-1.291 58.848-48.624 63.064-93.405zM203.534 177.154h-91.717L80.775 63.399a1.497 1.497 0 00-1.842-1.052l-16.552 4.516a1.5 1.5 0 00-1.052 1.842L96.12 196.193a1.5 1.5 0 001.447 1.105h105.968a1.5 1.5 0 001.5-1.5v-17.145a1.5 1.5 0 00-1.501-1.499z" data-original="#010002" class="active-path" data-old_color="#010002" fill="#010002"/></svg>