<svg xmlns="http://www.w3.org/2000/svg" viewBox="0 0 477.867 477.867"><path d="M425.353 95.881a16.913 16.913 0 00-3.703-5.564L336.316 4.983A17.27 17.27 0 00324.267 0h-256C58.841 0 51.2 7.641 51.2 17.067V460.8c0 9.426 7.641 17.067 17.067 17.067H409.6c9.426 0 17.067-7.641 17.067-17.067V102.4a16.924 16.924 0 00-1.314-6.519zm-84.02 296.652h-204.8c-9.426 0-17.067-7.641-17.067-17.067s7.641-17.067 17.067-17.067h204.8c9.426 0 17.067 7.641 17.067 17.067s-7.641 17.067-17.067 17.067zm0-68.266h-204.8c-9.426 0-17.067-7.641-17.067-17.067s7.641-17.067 17.067-17.067h204.8c9.426 0 17.067 7.641 17.067 17.067s-7.641 17.067-17.067 17.067zm0-68.267h-204.8c-9.426 0-17.067-7.641-17.067-17.067s7.641-17.067 17.067-17.067h204.8c9.426 0 17.067 7.641 17.067 17.067S350.759 256 341.333 256zm0-68.267h-204.8c-9.426 0-17.067-7.641-17.067-17.067s7.641-17.067 17.067-17.067h204.8c9.426 0 17.067 7.641 17.067 17.067s-7.641 17.067-17.067 17.067zm0-102.4V58.266l27.068 27.068h-27.068z"/></svg>