<svg xmlns="http://www.w3.org/2000/svg" viewBox="0 0 512 512"><path d="M467 0H45C20.186 0 0 20.186 0 45v302c0 24.814 20.186 45 45 45h135v30h151v-30h136c24.814 0 45-20.186 45-45V45c0-24.814-20.186-45-45-45zM175.606 266.605l-60 60c-5.859 5.859-15.352 5.859-21.211 0l-30-30c-5.86-5.859-5.86-15.351 0-21.21 5.859-5.859 15.352-5.859 21.211 0L105 294.789l49.395-49.395c5.859-5.859 15.352-5.859 21.211 0s5.859 15.352 0 21.211zm0-90l-60 60c-5.859 5.859-15.352 5.859-21.211 0l-30-30c-5.86-5.859-5.86-15.351 0-21.21 5.859-5.859 15.352-5.859 21.211 0L105 204.789l49.395-49.395c5.859-5.859 15.352-5.859 21.211 0s5.859 15.352 0 21.211zm0-90l-60 60c-5.859 5.859-15.352 5.859-21.211 0l-30-30c-5.86-5.859-5.86-15.351 0-21.21 5.859-5.859 15.352-5.859 21.211 0L105 114.789l49.395-49.395c5.859-5.859 15.352-5.859 21.211 0s5.859 15.352 0 21.211zM437 301H225c-8.291 0-15-6.709-15-15s6.709-15 15-15h212c8.291 0 15 6.709 15 15s-6.709 15-15 15zm0-90H225c-8.291 0-15-6.709-15-15s6.709-15 15-15h212c8.291 0 15 6.709 15 15s-6.709 15-15 15zm0-90H225c-8.291 0-15-6.709-15-15s6.709-15 15-15h212c8.291 0 15 6.709 15 15s-6.709 15-15 15zM361 452H151c-33.091 0-60 26.909-60 60h330c0-33.091-26.909-60-60-60z"/></svg>